<?xml version="1.0" standalone="no"?><!DOCTYPE svg PUBLIC "-//W3C//DTD SVG 1.1//EN" "http://www.w3.org/Graphics/SVG/1.1/DTD/svg11.dtd"><svg t="1724820646567" class="icon" viewBox="0 0 1024 1024" version="1.1" xmlns="http://www.w3.org/2000/svg" p-id="6082" xmlns:xlink="http://www.w3.org/1999/xlink" width="200" height="200"><path d="M686.037333 413.482667h-108.416c-23.253333 0-89.130667 11.392-111.402666-2.474667-4.266667-15.829333 9.898667-44.544 13.866666-58.410667 11.392-40.106667 22.272-79.701333 33.664-120.32l48.512-174.933333a19.626667 19.626667 0 0 0-35.669333-15.36l-392.106667 538.154667a20.053333 20.053333 0 0 0 17.322667 29.866666h159.018667c10.88 0 52.992-6.912 59.733333 3.456 6.442667 8.533333-5.930667 34.645333-8.533333 44.074667-29.866667 102.997333-58.410667 205.952-87.125334 308.949333a19.626667 19.626667 0 0 0 35.626667 15.36l391.637333-538.154666a19.754667 19.754667 0 0 0-16.128-30.208z" fill="#00AB67" p-id="6083"></path><path d="M862.976 77.482667h-177.237333a29.568 29.568 0 1 0 0 59.136h177.408a29.568 29.568 0 1 0 0-59.136zM803.84 195.754667h-118.101333a29.568 29.568 0 1 0 0 59.136h118.272a29.568 29.568 0 0 0 0-59.136zM744.704 314.026667h-58.965333a29.568 29.568 0 1 0 0 59.136h59.136a29.568 29.568 0 1 0 0-59.136z" fill="#00AB67" p-id="6084"></path></svg>